<svg width="18" height="19" viewBox="0 0 18 19" fill="none" xmlns="http://www.w3.org/2000/svg">
<path d="M16.6 18.3364L10.3 12.0364C9.8 12.4364 9.225 12.7531 8.575 12.9864C7.925 13.2198 7.23333 13.3364 6.5 13.3364C4.68333 13.3364 3.14583 12.7073 1.8875 11.4489C0.629167 10.1906 0 8.65309 0 6.83643C0 5.01976 0.629167 3.48226 1.8875 2.22393C3.14583 0.965593 4.68333 0.336426 6.5 0.336426C8.31667 0.336426 9.85417 0.965593 11.1125 2.22393C12.3708 3.48226 13 5.01976 13 6.83643C13 7.56976 12.8833 8.26143 12.65 8.91143C12.4167 9.56143 12.1 10.1364 11.7 10.6364L18 16.9364L16.6 18.3364ZM6.5 11.3364C7.75 11.3364 8.8125 10.8989 9.6875 10.0239C10.5625 9.14893 11 8.08643 11 6.83643C11 5.58643 10.5625 4.52393 9.6875 3.64893C8.8125 2.77393 7.75 2.33643 6.5 2.33643C5.25 2.33643 4.1875 2.77393 3.3125 3.64893C2.4375 4.52393 2 5.58643 2 6.83643C2 8.08643 2.4375 9.14893 3.3125 10.0239C4.1875 10.8989 5.25 11.3364 6.5 11.3364Z" fill="#9B9B9B"/>
</svg>
